<?xml version="1.0" encoding="UTF-8"?>
<svg width="146px" height="28px" viewBox="0 0 146 28" version="1.1" xmlns="http://www.w3.org/2000/svg" xmlns:xlink="http://www.w3.org/1999/xlink">
    <!-- Generator: Sketch 41 (35326) - http://www.bohemiancoding.com/sketch -->
    <title>flock-logo-white</title>
    <desc>Created with Sketch.</desc>
    <defs>
        <polygon id="path-1" points="0 27.7919111 145.789111 27.7919111 145.789111 -0.000282125604 0 -0.000282125604"></polygon>
    </defs>
    <g id="Welcome" stroke="none" stroke-width="1" fill="none" fill-rule="evenodd">
        <g id="New" transform="translate(-63.000000, -45.000000)">
            <g id="flock-logo-white" transform="translate(63.000000, 45.000000)">
                <path d="M62.6847826,22.518913 L62.6847826,22.7008841 C65.7458454,22.7008841 67.755285,25.8494058 67.755285,25.8494058 C69.1708502,27.4977246 70.6082802,27.7290676 72.8483575,27.7290676 C75.0898454,27.7290676 76.6062705,27.4420048 77.9435459,25.8494058 C77.9435459,25.8494058 79.9508696,22.7008841 83.0119324,22.7008841 L83.0119324,22.518913 L62.6847826,22.518913 L62.6847826,22.518913 Z" id="Fill-1" fill="#FFFFFF"></path>
                <path d="M20.8439333,16.9304986 C20.8439333,16.9304986 21.0301362,18.7586725 18.6976628,18.7586725 L14.9108319,18.7586725 C13.4642329,18.7586725 12.0825227,19.1219092 10.2056821,16.9304986 C10.2056821,16.9304986 8.19765314,13.7791556 5.14082222,13.7791556 L5.14082222,13.5971845 L20.8467546,13.5971845 L20.8439333,16.9304986 Z" id="Fill-3" fill="#FFFFFF"></path>
                <path d="M53.8311169,25.8491942 C53.8311169,25.8491942 54.0152039,27.6780734 51.6869623,27.6780734 L44.7741797,27.6780734 C43.3318126,27.6780734 41.9437546,28.0420155 40.0711459,25.8491942 C40.0711459,25.8491942 38.0595903,22.7006725 35.0034647,22.7006725 L35.0034647,22.5187014 L53.8339382,22.5187014 L53.8311169,25.8491942 Z" id="Fill-5" fill="#FFFFFF"></path>
                <path d="M26.277743,1.9332657 C26.277743,1.9332657 26.4625353,0.107913043 24.1335884,0.107913043 L14.9109024,0.107913043 C13.4643034,0.107913043 12.0825932,-0.258144928 10.2057527,1.9332657 C10.2057527,1.9332657 8.19772367,5.08601932 5.14089275,5.08601932 L5.14089275,5.26375845 L26.2805643,5.26375845 L26.277743,1.9332657 Z" id="Fill-7" fill="#FFFFFF"></path>
                <path d="M5.14103382,5.45123092 L5.14103382,13.7788734 L1.51007729,13.7788734 C1.51007729,13.7788734 0.00352657005,13.8261295 0.00352657005,11.6601101 L0.00352657005,6.7744 C0.00352657005,6.7744 -0.13189372,5.08587826 2.15050242,5.08587826 L5.14103382,5.08587826 L5.14103382,5.45123092 Z" id="Fill-9" fill="#FFFFFF"></path>
                <path d="M77.8490338,1.9332657 C76.9384734,0.868241546 75.8036232,0.408376812 74.8747246,0.215826087 C74.691343,0.16715942 74.484686,0.133304348 74.2469952,0.119198068 C73.5938744,0.0536038647 73.5127633,0.107913043 73.5127633,0.107913043 L72.4562029,0.107913043 C72.4562029,0.107913043 72.0111498,0.0536038647 71.358029,0.119198068 C71.1203382,0.133304348 70.9129758,0.16715942 70.7302995,0.215826087 C69.8042222,0.408376812 68.667256,0.868241546 67.755285,1.9332657 C67.755285,1.9332657 65.7458454,5.08601932 62.6847826,5.08601932 L62.6847826,5.26375845 L69.4473333,5.26375845 L76.1591014,5.26375845 L82.916715,5.26375845 L82.916715,5.08601932 C79.8591787,5.08601932 77.8490338,1.9332657 77.8490338,1.9332657" id="Fill-11" fill="#FFFFFF"></path>
                <path d="M63.5085188,5.45123092 L63.5085188,22.7321295 L59.8789729,22.7321295 C59.8789729,22.7321295 58.3724222,22.591772 58.3724222,20.6077237 L58.3724222,6.95637101 C58.3724222,6.95637101 58.2377072,5.08587826 60.5193981,5.08587826 L63.5085188,5.08587826 L63.5085188,5.45123092 Z" id="Fill-13" fill="#FFFFFF"></path>
                <path d="M82.0189208,22.3667063 L82.0189208,5.08580773 L85.6526986,5.08580773 C85.6526986,5.08580773 87.1599546,5.22334396 87.1599546,7.20598164 L87.1599546,20.8608609 C87.1599546,20.8608609 87.2946696,22.7320589 85.0122734,22.7320589 L82.0189208,22.7320589 L82.0189208,22.3667063 Z" id="Fill-15" fill="#FFFFFF"></path>
                <mask id="mask-2" fill="white">
                    <use xlink:href="#path-1"></use>
                </mask>
                <g id="Clip-18"></g>
                <polygon id="Fill-17" fill="#FFFFFF" mask="url(#mask-2)" points="0.224995169 27.7919111 5.14103382 27.7919111 5.14103382 14.5129643 0.224995169 14.5129643"></polygon>
                <path d="M35.4289101,17.1695295 L35.4289101,22.711887 L31.7972483,22.711887 C31.7972483,22.711887 30.2949295,22.7535005 30.2949295,20.5832493 L30.2949295,18.4948145 C30.2949295,18.4948145 30.1559826,16.8027662 32.4376734,16.8027662 L35.4289101,16.8027662 L35.4289101,17.1695295 Z" id="Fill-19" fill="#FFFFFF" mask="url(#mask-2)"></path>
                <polygon id="Fill-20" fill="#FFFFFF" mask="url(#mask-2)" points="30.5168213 16.1916116 35.4293333 16.1916116 35.4293333 0.26632657 30.5168213 0.26632657"></polygon>
                <path d="M105.179952,5.18123671 L105.179952,5.18123671 L115.641169,5.18123671 L115.641169,4.9992657 C112.581517,4.9992657 110.575604,1.84933333 110.575604,1.84933333 C108.7037,-0.342077295 105.871159,0.0246859903 105.871159,0.0246859903 L104.974705,0.0246859903 L104.967652,0.0818164251 C97.4285507,0.198193237 91.3508599,6.34147826 91.3508599,13.9087923 C91.3508599,21.4768116 97.4299614,27.6193913 104.969063,27.7322415 L104.972589,27.7660966 L105.869043,27.7660966 C105.869043,27.7660966 108.700879,28.1272174 110.575604,25.9400386 C110.575604,25.9400386 112.581517,22.789401 115.641169,22.789401 L115.641169,22.6046087 L104.526831,22.6046087 C100.015643,22.2681739 96.4573333,18.506029 96.4573333,13.9087923 C96.4573333,9.08867633 100.362657,5.18123671 105.179952,5.18123671" id="Fill-21" fill="#FFFFFF" mask="url(#mask-2)"></path>
                <path d="M130.210276,2.71849179 L130.288566,2.71849179 L130.254006,2.66700386 L130.425397,2.43918744 C131.005165,1.75714879 132.774798,0.00514879227 135.815407,0.000211594203 L138.274131,0.000211594203 L127.637291,14.0691101 L113.871677,14.0691101 L113.871677,13.8843179 C116.930624,13.8843179 118.583175,11.4566271 118.583175,11.4566271 C120.168721,9.39358357 121.843136,9.62915845 121.843136,9.62915845 L125.028334,9.62915845 L130.210276,2.71849179 Z" id="Fill-22" fill="#FFFFFF" mask="url(#mask-2)"></path>
                <path d="M133.086688,27.6672116 C131.195741,27.3914338 130.045374,26.1444386 129.771007,25.803772 L121.367896,15.1641101 L127.619094,15.1641101 L136.990601,27.6672116 L133.086688,27.6672116 Z" id="Fill-23" fill="#FFFFFF" mask="url(#mask-2)"></path>
                <path d="M141.561459,3.95243865 C141.561459,3.95243865 141.064918,4.07234203 140.221362,4.11889275 C139.382039,4.16473816 138.087082,4.14357874 137.766164,4.15980097 C137.448068,4.17390725 137.197681,4.25078647 137.197681,4.25078647 C137.197681,4.25078647 137.469932,4.20564638 137.726667,4.20141449 C137.982696,4.19577198 138.848821,4.21128889 138.848821,4.21128889 C138.848821,4.21128889 137.898763,4.23456425 137.790145,4.25078647 C137.675179,4.26489275 137.577845,4.28675749 137.577845,4.28675749 C137.577845,4.28675749 138.795923,4.26489275 139.3637,4.24514396 C139.932889,4.22257391 140.745411,4.19577198 141.129807,4.19577198 C141.506444,4.19295072 141.624232,4.17743382 141.624232,4.17743382 C141.624232,4.17743382 141.794213,4.25925024 141.85628,4.26841932 C141.912705,4.2825256 141.933865,4.27406184 141.995227,4.30015845 C142.062937,4.31990725 141.995227,4.31990725 142.129237,4.32343382 C142.262541,4.32554976 142.94458,4.40242899 143.535633,4.28675749 C144.126686,4.16897005 144.985758,4.01944348 145.104251,4.01239034 C145.221333,4.00674783 145.273527,3.99757874 145.439275,4.04130821 C145.605729,4.08362705 145.761604,4.15768502 145.757372,4.14922126 C145.757372,4.14357874 145.610667,4.04130821 145.549304,3.99757874 C145.483005,3.95878647 145.408947,3.9298686 145.408947,3.9298686 C145.579633,3.99264155 145.652986,4.00674783 145.789111,4.13511498 C145.789111,4.13511498 145.736918,4.00956908 145.679082,3.95878647 C145.618425,3.90306667 145.241787,3.6780715 145.241787,3.6780715 C145.241787,3.6780715 145.228386,3.58990725 145.102135,3.51161739 C144.973768,3.43332754 144.320647,3.24430338 144.284676,3.23936618 C144.251527,3.23301836 144.16971,3.20762705 144.16971,3.20762705 C144.16971,3.20762705 144.097063,3.04540483 144.205681,2.70826473 C144.308657,2.37465121 144.575971,2.05584928 144.593604,1.7299942 C144.60771,1.4076657 144.512493,0.94497971 144.191575,0.536602899 C143.874184,0.128931401 143.682338,-0.00648888889 143.658357,-0.000141062802 C143.628734,0.00479613527 143.623797,0.0534628019 143.623797,0.0534628019 C143.623797,0.0534628019 143.546213,0.0160811594 143.530696,0.0471149758 C143.519411,0.0816753623 143.542686,0.133163285 143.542686,0.133163285 C143.542686,0.133163285 143.500367,0.0816753623 143.488377,0.150090821 C143.477797,0.212158454 143.525053,0.351105314 143.525053,0.351105314 C143.525053,0.351105314 143.488377,0.354631884 143.500367,0.421636715 C143.509536,0.482999034 143.553266,0.582448309 143.553266,0.582448309 C143.553266,0.582448309 143.50742,0.555646377 143.509536,0.621945894 C143.510947,0.691771981 143.542686,0.761598068 143.542686,0.761598068 C143.542686,0.761598068 143.500367,0.733385507 143.519411,0.844119807 C143.538454,0.960496618 143.568077,0.986593237 143.568077,0.986593237 C143.568077,0.986593237 143.525053,1.00069952 143.521527,1.05430338 C143.519411,1.10861256 143.556792,1.18831304 143.562435,1.19959807 C143.568077,1.21088309 143.519411,1.19959807 143.519411,1.28000386 C143.515884,1.35899903 143.553266,1.45703768 143.553266,1.45703768 C143.553266,1.45703768 143.486261,1.44716329 143.509536,1.51064155 C143.535633,1.579057 143.553266,1.62208116 143.553266,1.62208116 C143.553266,1.62208116 143.500367,1.60656425 143.519411,1.67850628 C143.542686,1.75538551 143.556792,1.80405217 143.556792,1.80405217 C143.556792,1.80405217 143.472155,1.82521159 143.486261,1.88445797 C143.500367,1.94723092 143.519411,2.02552077 143.50742,2.02269952 C143.492609,2.01846763 143.434773,2.01141449 143.434773,2.04668019 C143.434773,2.08688309 143.446058,2.14330821 143.446058,2.14330821 C143.446058,2.14330821 143.398097,2.17363671 143.38399,2.24064155 C143.369179,2.29988792 143.369179,2.33162705 143.334618,2.38029372 C143.30429,2.42825507 143.213304,2.50442899 143.213304,2.50442899 C143.213304,2.50442899 143.246454,2.18351111 142.898029,1.96768502 C142.55313,1.749743 140.37371,0.532371014 140.346908,0.568342029 C140.321517,0.603607729 140.37371,0.673433816 140.339855,0.655095652 C140.308116,0.633936232 140.274966,0.618419324 140.274966,0.646631884 C140.274966,0.673433816 140.321517,0.750313043 140.321517,0.750313043 C140.321517,0.750313043 140.266502,0.718573913 140.29542,0.782052174 C140.321517,0.846941063 140.461169,0.96613913 140.602232,1.08322126 C140.745411,1.19959807 140.893527,1.30045797 140.893527,1.30045797 C140.893527,1.30045797 140.832164,1.29058357 140.86743,1.36182029 C140.902696,1.42811981 141.269459,1.66369469 141.269459,1.66369469 C141.269459,1.66369469 141.205981,1.70671884 141.269459,1.75538551 C141.324473,1.80405217 141.751894,1.95922126 141.726502,1.9613372 C141.708164,1.9662744 141.679952,2.00436135 141.718744,2.05020676 C141.751894,2.0925256 141.864744,2.15811981 141.864744,2.15811981 C141.864744,2.15811981 141.882377,2.21454493 141.916937,2.25756908 C141.954319,2.29988792 142.016386,2.35701836 142.024145,2.37465121 C142.036841,2.39087343 142.016386,2.41344348 142.050242,2.46211014 C142.081981,2.51077681 142.093971,2.50231304 142.087623,2.53193623 C142.086213,2.56367536 142.062937,2.60176232 142.101729,2.61445797 C142.138406,2.62997488 142.123594,2.67582029 142.130647,2.71884444 C142.141932,2.76116329 142.170145,2.80066087 142.170145,2.80066087 C142.170145,2.80066087 142.158155,2.84368502 142.172966,2.87471884 C142.189894,2.90011014 142.203295,2.88600386 142.211758,2.917743 C142.213169,2.95865121 142.210348,2.96570435 142.233623,3.00238068 C142.256899,3.04117295 142.269594,3.02283478 142.271005,3.0841971 C142.279469,3.14485411 142.285111,3.14485411 142.295691,3.15896039 C142.302744,3.17588792 142.279469,3.19563671 142.305565,3.23301836 C142.32743,3.27604251 142.397256,3.4065256 142.426879,3.46365604 C142.454386,3.52360773 142.45086,3.55040966 142.443807,3.57439034 C142.436048,3.59907633 142.072812,3.73590725 141.907063,3.79585894 C141.742019,3.86145314 141.561459,3.95243865 141.561459,3.95243865" id="Fill-24" fill="#FFFFFF" mask="url(#mask-2)"></path>
                <path d="M64.1931671,22.5502995 C63.8158242,22.5502995 63.5083072,22.2420773 63.5083072,21.8633237 L62.6845005,21.8633237 L63.4998435,22.6758454 L64.478114,22.6758454 L64.1931671,22.5502995 Z" id="Fill-25" fill="#FFFFFF" mask="url(#mask-2)"></path>
                <path d="M81.3335671,22.5502995 C81.7130261,22.5502995 82.0191324,22.2420773 82.0191324,21.8633237 L82.8401179,21.8633237 L82.0283014,22.6758454 L81.0507362,22.6758454 L81.3335671,22.5502995 Z" id="Fill-26" fill="#FFFFFF" mask="url(#mask-2)"></path>
                <path d="M81.3280657,5.2521913 C81.7047034,5.2521913 82.0136309,5.56041353 82.0136309,5.93775652 L82.8367324,5.93775652 L82.0228,5.12735072 L81.0438242,5.12735072 L81.3280657,5.2521913 Z" id="Fill-27" fill="#FFFFFF" mask="url(#mask-2)"></path>
                <path d="M64.1904164,5.2521913 C63.8130734,5.2521913 63.5041459,5.56041353 63.5041459,5.93775652 L62.6796338,5.93775652 L63.4956821,5.12735072 L64.4753633,5.12735072 L64.1904164,5.2521913 Z" id="Fill-28" fill="#FFFFFF" mask="url(#mask-2)"></path>
                <polygon id="Fill-29" fill="#FFFFFF" mask="url(#mask-2)" points="0 27.7919111 5.14103382 27.7919111 5.14103382 9.88822029 0 9.88822029"></polygon>
                <polygon id="Fill-30" fill="#FFFFFF" mask="url(#mask-2)" points="30.2904155 20.0419208 35.428628 20.0419208 35.428628 0.267031884 30.2904155 0.267031884"></polygon>
            </g>
        </g>
    </g>
</svg>